# xmcd CD database file
#
# Track frame offsets:
#	150
#	13668
#	24387
#	34122
#	45351
#	57816
#	67859
#	75283
#	84598
#	95083
#	106543
#	117442
#	126857
#	137989
#	148019
#	155634
#	167047
#	178053
#	186643
#	198859
#	213417
#	225188
#	237365
#
# Disc length: 3338 seconds
#
# Revision: 0
# Processed by: cddbd v1.5.2PL0 Copyright (c) Steve Scherf et al.
# Submitted via: CDex 1.99.1
#
DISCID=300d0817
DTITLE=Pat Boone - CD3 - The EP Collection 1955-1961
DYEAR=2018
DGENRE=Country
TTITLE0=Autumn Leaves
TTITLE1=Blueberry Hill
TTITLE2=Cold, Cold Heart
TTITLE3=St Louis Blues
TTITLE4=Bourbon Street Blues
TTITLE5=Loyalty
TTITLE6=Bigger Than Texas
TTITLE7=A Fiddle, A Rifle, An Axe And A Bible
TTITLE8=You Can't Be True, Dear
TTITLE9=My Happiness
TTITLE10=Now Is The Hour
TTITLE11=Side By Side
TTITLE12=Beyond The Sunset
TTITLE13=Have Faith
TTITLE14=Peace On Earth
TTITLE15=Whispering Hope
TTITLE16=It Is No Secret
TTITLE17=My God Is Real (Yes God Is Real)
TTITLE18=Yield Not To Temptation
TTITLE19=Tenderly
TTITLE20=Fascination
TTITLE21=True Love
TTITLE22=Maybe You'll Be There
EXTD=YEAR: 2018
EXTT0=
EXTT1=
EXTT2=
EXTT3=
EXTT4=
EXTT5=
EXTT6=
EXTT7=
EXTT8=
EXTT9=
EXTT10=
EXTT11=
EXTT12=
EXTT13=
EXTT14=
EXTT15=
EXTT16=
EXTT17=
EXTT18=
EXTT19=
EXTT20=
EXTT21=
EXTT22=
PLAYORDER=
